<svg xmlns="http://www.w3.org/2000/svg" viewBox="0 0 1600 1000">
  <rect width="1600" height="1000" fill="#f6fbff"/>
  <rect x="0" y="0" width="1600" height="1000" fill="url(#g)"/>
  <circle cx="1300" cy="180" r="160" fill="#dbeafe" fill-opacity="0.65"/>
  <circle cx="260" cy="220" r="130" fill="#fef3c7" fill-opacity="0.65"/>
  <circle cx="1320" cy="780" r="200" fill="#bfdbfe" fill-opacity="0.55"/>
  <rect x="180" y="180" width="1220" height="640" rx="48" fill="#ffffff" fill-opacity="0.84"/>
  <rect x="220" y="240" width="520" height="320" rx="34" fill="#eff6ff"/>
  <rect x="780" y="240" width="560" height="180" rx="30" fill="#fff7ed"/>
  <rect x="780" y="450" width="560" height="260" rx="30" fill="#f0fdf4"/>
  <circle cx="430" cy="410" r="110" fill="#1a4b82"/>
  <circle cx="430" cy="410" r="64" fill="#38bdf8"/>
  <path d="M320 596c38-72 110-112 166-112 62 0 130 46 166 112" stroke="#f59e0b" stroke-width="22" fill="none" stroke-linecap="round"/>
  <rect x="820" y="280" width="220" height="30" rx="15" fill="#1a4b82"/>
  <rect x="820" y="330" width="150" height="24" rx="12" fill="#38bdf8"/>
  <rect x="820" y="490" width="240" height="28" rx="14" fill="#22c55e"/>
  <rect x="820" y="540" width="180" height="24" rx="12" fill="#1a4b82"/>
  <rect x="820" y="585" width="220" height="24" rx="12" fill="#f59e0b"/>
  <path d="M1200 580c30-40 76-64 132-64 70 0 120 31 146 82" stroke="#ef4444" stroke-width="16" fill="none" stroke-linecap="round"/>
  <defs>
    <linearGradient id="g" x1="0" y1="0" x2="1" y2="1">
      <stop offset="0%" stop-color="#f0f9ff"/>
      <stop offset="100%" stop-color="#e0f2fe"/>
    </linearGradient>
  </defs>
</svg>